<svg width="56" height="56" viewBox="0 0 56 56" fill="none" xmlns="http://www.w3.org/2000/svg">
<g clip-path="url(#clip0_94_2)">
<path d="M45.5678 16.555C46.1027 14.8295 46.2743 13.0119 46.0717 11.2167C45.8692 9.42161 45.2969 7.68793 44.3909 6.125C44.2373 5.85891 44.0163 5.63795 43.7502 5.48436C43.4841 5.33076 43.1823 5.24993 42.875 5.25C40.8367 5.24573 38.8256 5.71826 37.0024 6.62984C35.1793 7.54141 33.5946 8.86677 32.375 10.5H27.125C25.9054 8.86677 24.3207 7.54141 22.4976 6.62984C20.6744 5.71826 18.6633 5.24573 16.625 5.25C16.3177 5.24993 16.0159 5.33076 15.7498 5.48436C15.4837 5.63795 15.2627 5.85891 15.1091 6.125C14.2031 7.68793 13.6308 9.42161 13.4283 11.2167C13.2257 13.0119 13.3973 14.8295 13.9322 16.555C12.851 18.4422 12.2718 20.5751 12.25 22.75V24.5C12.2537 27.461 13.3286 30.3207 15.2762 32.551C17.2239 34.7813 19.9127 36.2316 22.8463 36.6341C21.6488 38.1663 20.9989 40.0554 21 42V43.75H15.75C14.3576 43.75 13.0223 43.1969 12.0377 42.2123C11.0531 41.2277 10.5 39.8924 10.5 38.5C10.5 37.3509 10.2737 36.2131 9.83395 35.1515C9.39422 34.0899 8.7497 33.1253 7.93718 32.3128C7.12467 31.5003 6.16008 30.8558 5.09848 30.4161C4.03688 29.9763 2.89907 29.75 1.75 29.75C1.28587 29.75 0.840752 29.9344 0.512563 30.2626C0.184375 30.5907 0 31.0359 0 31.5C0 31.9641 0.184375 32.4092 0.512563 32.7374C0.840752 33.0656 1.28587 33.25 1.75 33.25C3.14239 33.25 4.47774 33.8031 5.46231 34.7877C6.44688 35.7723 7 37.1076 7 38.5C7 40.8206 7.92187 43.0462 9.56282 44.6872C11.2038 46.3281 13.4294 47.25 15.75 47.25H21V50.75C21 51.2141 21.1844 51.6592 21.5126 51.9874C21.8408 52.3156 22.2859 52.5 22.75 52.5C23.2141 52.5 23.6592 52.3156 23.9874 51.9874C24.3156 51.6592 24.5 51.2141 24.5 50.75V42C24.5 40.6076 25.0531 39.2723 26.0377 38.2877C27.0223 37.3031 28.3576 36.75 29.75 36.75C31.1424 36.75 32.4777 37.3031 33.4623 38.2877C34.4469 39.2723 35 40.6076 35 42V50.75C35 51.2141 35.1844 51.6592 35.5126 51.9874C35.8408 52.3156 36.2859 52.5 36.75 52.5C37.2141 52.5 37.6592 52.3156 37.9874 51.9874C38.3156 51.6592 38.5 51.2141 38.5 50.75V42C38.5011 40.0554 37.8512 38.1663 36.6537 36.6341C39.5873 36.2316 42.2761 34.7813 44.2238 32.551C46.1714 30.3207 47.2463 27.461 47.25 24.5V22.75C47.2282 20.5751 46.649 18.4422 45.5678 16.555ZM43.75 24.5C43.75 26.8206 42.8281 29.0462 41.1872 30.6872C39.5462 32.3281 37.3206 33.25 35 33.25H24.5C22.1794 33.25 19.9538 32.3281 18.3128 30.6872C16.6719 29.0462 15.75 26.8206 15.75 24.5V22.75C15.7715 21.0001 16.2954 19.2931 17.2594 17.8325C17.4391 17.5956 17.5555 17.3169 17.5976 17.0226C17.6397 16.7282 17.6061 16.4281 17.5 16.1503C17.0442 14.9747 16.8248 13.7208 16.8545 12.4603C16.8841 11.1998 17.1622 9.95752 17.6728 8.80469C19.105 8.95876 20.4842 9.43319 21.708 10.1928C22.9319 10.9524 23.9691 11.9778 24.7428 13.1928C24.9005 13.4394 25.1174 13.6424 25.3739 13.7834C25.6303 13.9245 25.918 13.9989 26.2106 14H33.2872C33.5809 14 33.87 13.9261 34.1276 13.785C34.3853 13.6439 34.6033 13.4403 34.7616 13.1928C35.5351 11.9777 36.5723 10.9522 37.7962 10.1926C39.0201 9.43297 40.3993 8.9586 41.8316 8.80469C42.3415 9.95781 42.6188 11.2002 42.6477 12.4607C42.6766 13.7212 42.4565 14.975 42 16.1503C41.8942 16.4254 41.8588 16.7225 41.897 17.0148C41.9352 17.307 42.0458 17.5851 42.2188 17.8237C43.1923 19.2844 43.724 20.9948 43.75 22.75V24.5Z" fill="white"/>
</g>
<defs>
<clipPath id="clip0_94_2">
<rect width="56" height="56" fill="white"/>
</clipPath>
</defs>
</svg>
